# xmcd CD database file
#
# Track frame offsets:
#	150
#	19157
#	34528
#	50598
#	62001
#	75713
#	90116
#	102547
#	116362
#	134582
#	147849
#	162273
#	178032
#	190120
#
# Disc length: 2754 seconds
#
# Revision: 0
# Processed by: cddbd v1.5.2PL0 Copyright (c) Steve Scherf et al.
# Submitted via: CDex 1.75
#
DISCID=b40ac00e
DTITLE=Nina Simone - Mood Indigo: The Complete Bethlehem Singles
DYEAR=2018
DGENRE=Jazz
TTITLE0=I Loves You, Porgy
TTITLE1=Love Me Or Leave Me
TTITLE2=Little Girl Blue
TTITLE3=He Needs Me
TTITLE4=Don't Smoke In Bed
TTITLE5=African Mailman
TTITLE6=Mood Indigo
TTITLE7=Central Park Blues
TTITLE8=For All We Know
TTITLE9=Good Bait
TTITLE10=You'll Never Walk Alone
TTITLE11=Plain Gold Ring
TTITLE12=He's Got The Whole World In His Hands
TTITLE13=My Baby Just Cares For Me
EXTD=YEAR: 2018
EXTT0=
EXTT1=
EXTT2=
EXTT3=
EXTT4=
EXTT5=
EXTT6=
EXTT7=
EXTT8=
EXTT9=
EXTT10=
EXTT11=
EXTT12=
EXTT13=
PLAYORDER=
